<?xml version="1.0" encoding="UTF-8" standalone="no"?><!DOCTYPE svg PUBLIC "-//W3C//DTD SVG 1.1//EN" "http://www.w3.org/Graphics/SVG/1.1/DTD/svg11.dtd"><svg width="288" height="288" viewBox="0 0 288 288" version="1.1" xmlns="http://www.w3.org/2000/svg" xmlns:xlink="http://www.w3.org/1999/xlink" xml:space="preserve" xmlns:serif="http://www.serif.com/" style="fill-rule:evenodd;clip-rule:evenodd;stroke-linejoin:round;stroke-miterlimit:1.41421;"><path d="M142.9,5.2l100.4,58l-100.4,58l-100.3,-58l100.3,-58Z" style="fill:#c6d761;fill-rule:nonzero;"/><path d="M42.4,178.9l100.4,-57.7l-100.4,-58l0,115.7Z" style="fill:#3b5c9d;fill-rule:nonzero;"/><path d="M42.6,178.9l100.3,57.5l0,-115.2l-100.3,57.7Z" style="fill:#c37ba8;fill-rule:nonzero;"/><path d="M243.3,178.9l-100.4,-57.7l100.4,-58l0,115.7Z" style="fill:#eb9118;fill-rule:nonzero;"/><path d="M243.3,178.9l-100.4,57.5l0,-115.2l100.4,57.7Z" style="fill:#fac317;fill-rule:nonzero;"/><path d="M67.4,106.7l25.3,14.3l25.1,-14.3l-25.2,-14.6l-25.2,14.6Z" style="fill:#c37ba8;fill-rule:nonzero;"/><path d="M92.6,92.1l25.3,14.4l74.8,-43.2l-25.2,-14.5l-74.9,43.3Z" style="fill:#8dbf33;fill-rule:nonzero;"/><path d="M192.7,63.3l0,29.1l-49.8,28.8l-25.1,-14.5l74.9,-43.4Z" style="fill:#4ea347;fill-rule:nonzero;"/><path d="M67.4,106.7l25.3,14.3l0,29l25.1,14.1l0,57.9l-50.4,-28.9l0,-86.4Z" style="fill:#8258a1;fill-rule:nonzero;"/><path d="M92.7,150l25.1,14.1l25.1,-14.1l0,-28.8l-50.2,28.8Z" style="fill:#c37ba8;fill-rule:nonzero;"/><path d="M142.9,150l-25.1,14.1l0,57.9l25.1,-14.7l0,-57.3Z" style="fill:#3b5c9d;fill-rule:nonzero;"/><path d="M192.7,92.4l25.3,14.7l-75.1,42.9l0,-28.8l49.8,-28.8Z" style="fill:#fac317;fill-rule:nonzero;"/><path d="M142.9,207.3l74.7,-43.2l0.4,-57l-75.1,42.9l0,57.3Z" style="fill:#e15361;fill-rule:nonzero;"/><g><path d="M53.7,278.3c-1.8,2 -5.3,1.9 -6.4,1.9l-23.6,0l0,-24.8l21.3,0c0.8,0 4.9,0.2 6.5,1.1c2.1,1.3 2.8,3.3 2.8,5.3l0,1.1c0,0.9 0,2 -1.1,3.1c-0.8,0.9 -2.6,1.6 -2.8,1.6c0.1,0 1.8,0.2 3.1,1.2c1,0.7 1.8,2.2 1.7,4.2l0,0.9c0.1,1.6 -0.2,3 -1.5,4.4Zm-8.1,-16.8c-0.4,-0.2 -0.9,-0.3 -1.4,-0.3l-12.9,0l0,4.1l12.9,0c0.7,0 1.3,-0.1 1.8,-0.5c0.6,-0.5 0.8,-1 0.7,-1.8c-0.1,-0.6 -0.4,-1.2 -1.1,-1.5Zm1,9c-0.4,-0.2 -0.9,-0.2 -1.5,-0.2l-13.9,0l0,4.1l13.9,0c0.7,0 1.3,0 1.8,-0.5c0.6,-0.5 0.7,-0.9 0.7,-1.7c0,-0.8 -0.3,-1.4 -1,-1.7Z" style="fill:#7a7d83;fill-rule:nonzero;"/><path d="M121.5,277.6c-2.4,3 -8.4,2.6 -9.5,2.6l-9.7,0c-1.7,0 -5.5,0.2 -7.7,-2c-2.1,-2 -2.5,-5.5 -2.5,-7.1l0,-15.7l7.6,0l0,15.1c0,1.1 0.1,1.9 0.7,2.7c0.8,1 1.9,1.2 3.2,1.2l8,0c1.3,0 2.3,0.1 3.3,-0.9c0.8,-0.7 0.9,-1.5 0.9,-2.5l0,-15.6l7.5,0l0,16.3c0.1,2.4 -0.3,4 -1.8,5.9Z" style="fill:#7a7d83;fill-rule:nonzero;"/><path d="M188.9,279.1c-1.6,1 -4.7,1.2 -7.7,1.2l-10.8,0c-3.2,0 -5.2,-0.4 -7.8,-2.2c-2.3,-1.7 -2.2,-6.4 -2.2,-8.7l0,-4.1c0,-4.8 1.1,-7.1 2.6,-8.2c2.1,-1.6 6.4,-1.7 7.8,-1.7l11.9,0c0.6,0 4.7,0.2 6,1.1c2.4,1.6 2.8,3.2 2.8,5.7l0,1.6l-7.3,0c0.1,-0.9 0.1,-1.3 -0.6,-1.8c-0.7,-0.5 -2,-0.7 -3.3,-0.7l-7.9,0c-0.6,0 -2.2,-0.1 -3.2,0.5c-0.9,0.6 -1.3,1.4 -1.3,2.6l0,5.9c0,1.2 0.1,2.1 0.9,3.1c0.5,0.6 2.1,1.1 2.9,1.1l9.5,0c1.1,0 2,-0.2 2.6,-1c0.6,-0.7 0.8,-1.3 0.6,-2.4l-9.4,0l0,-5.1l16.6,0l0,7.8c0,2.2 -0.4,3.9 -2.7,5.3Z" style="fill:#7a7d83;fill-rule:nonzero;"/><path d="M259.9,278.2c-1.9,1.5 -4.7,2 -7.9,2l-14,0c-2.9,0 -5.1,-0.4 -7.5,-2.2c-2.2,-1.7 -1.9,-6.6 -1.9,-8.9l0,-3c0,-2.3 -0.1,-6.8 2.6,-9c2.1,-1.7 4.3,-1.7 7.1,-1.7l13.3,0c3.1,0 5.4,0.1 7.8,1.9c3.3,2.5 3,6.8 3,8.8l0,2.9c-0.1,2.7 0.1,7.2 -2.5,9.2Zm-5.9,-13.7c0,-1 -0.2,-1.8 -1,-2.5c-0.8,-0.7 -1.7,-0.7 -2.8,-0.7l-9.6,0c-0.6,0 -2.2,-0.1 -3.1,0.5c-1.2,0.8 -1.3,2 -1.3,3.4l0,5.1c0,1.2 0,2.2 0.7,3.1c0.6,0.6 2.3,1 3.1,1l10.2,0c1.1,0 2.1,-0.3 2.8,-0.8c0.9,-0.6 1.1,-1.6 1.1,-2.7l0,-6.4l-0.1,0Z" style="fill:#7a7d83;fill-rule:nonzero;"/></g><path d="M142.9,5.2l-100.3,58l50,28.9l50.2,-29l0.1,-57.9Z" style="fill:#4ea347;"/></svg>